<?xml version="1.0" encoding="UTF-8" standalone="no"?>
<!DOCTYPE svg PUBLIC "-//W3C//DTD SVG 1.1//EN"
 "http://www.w3.org/Graphics/SVG/1.1/DTD/svg11.dtd">
<!-- Generated by graphviz version 2.47.0 (20210316.0004)
 -->
<!-- Title: dependencies Pages: 1 -->
<svg width="748pt" height="211pt"
 viewBox="0.00 0.00 748.00 211.00" xmlns="http://www.w3.org/2000/svg" xmlns:xlink="http://www.w3.org/1999/xlink">
<g id="graph0" class="graph" transform="scale(1 1) rotate(0) translate(4 207)">
<title>dependencies</title>
<polygon fill="white" stroke="transparent" points="-4,4 -4,-207 744,-207 744,4 -4,4"/>
<text text-anchor="start" x="349.01" y="-42.4" font-family="Times-12" font-weight="bold" font-size="14.00">Legend</text>
<polygon fill="#ffffb3" stroke="transparent" points="136,-10 136,-30 156,-30 156,-10 136,-10"/>
<text text-anchor="start" x="159.63" y="-15.4" font-family="Times-12" font-size="14.00"> &#160;Declarations</text>
<polygon fill="#8dd3c7" stroke="transparent" points="249,-10 249,-30 269,-30 269,-10 249,-10"/>
<text text-anchor="start" x="272.73" y="-15.4" font-family="Times-12" font-size="14.00"> &#160;Module</text>
<polygon fill="#80b1d3" stroke="transparent" points="335,-10 335,-30 355,-30 355,-10 335,-10"/>
<text text-anchor="start" x="358.78" y="-15.4" font-family="Times-12" font-size="14.00"> &#160;Bootstrap</text>
<polygon fill="#fdb462" stroke="transparent" points="432,-10 432,-30 452,-30 452,-10 432,-10"/>
<text text-anchor="start" x="455.67" y="-15.4" font-family="Times-12" font-size="14.00"> &#160;Providers</text>
<polygon fill="#fb8072" stroke="transparent" points="528,-10 528,-30 548,-30 548,-10 528,-10"/>
<text text-anchor="start" x="551.73" y="-15.4" font-family="Times-12" font-size="14.00"> &#160;Exports</text>
<g id="clust1" class="cluster">
<title>cluster_UserModule</title>
<polygon fill="none" stroke="black" stroke-dasharray="1,5" points="8,-70 8,-195 732,-195 732,-70 8,-70"/>
</g>
<g id="clust7" class="cluster">
<title>cluster_UserModule_imports</title>
<polygon fill="none" stroke="black" points="576,-78 576,-130 724,-130 724,-78 576,-78"/>
</g>
<g id="clust2" class="cluster">
<title>cluster_UserModule_declarations</title>
<polygon fill="none" stroke="black" points="16,-78 16,-130 568,-130 568,-78 16,-78"/>
</g>
<!-- UAddComponent -->
<g id="node1" class="node">
<title>UAddComponent</title>
<polygon fill="#ffffb3" stroke="black" points="559.55,-122 444.45,-122 444.45,-86 559.55,-86 559.55,-122"/>
<text text-anchor="middle" x="502" y="-99.8" font-family="Times,serif" font-size="14.00">UAddComponent</text>
</g>
<!-- UserModule -->
<g id="node5" class="node">
<title>UserModule</title>
<polygon fill="#8dd3c7" stroke="black" points="404.98,-187 401.98,-191 380.98,-191 377.98,-187 319.02,-187 319.02,-151 404.98,-151 404.98,-187"/>
<text text-anchor="middle" x="362" y="-164.8" font-family="Times,serif" font-size="14.00">UserModule</text>
</g>
<!-- UAddComponent&#45;&gt;UserModule -->
<g id="edge1" class="edge">
<title>UAddComponent&#45;&gt;UserModule</title>
<path fill="none" stroke="black" d="M502,-122.02C502,-139.37 502,-163 502,-163 502,-163 415.15,-163 415.15,-163"/>
<polygon fill="black" stroke="black" points="415.15,-159.5 405.15,-163 415.15,-166.5 415.15,-159.5"/>
</g>
<!-- UDeleteComponent -->
<g id="node2" class="node">
<title>UDeleteComponent</title>
<polygon fill="#ffffb3" stroke="black" points="425.97,-122 298.03,-122 298.03,-86 425.97,-86 425.97,-122"/>
<text text-anchor="middle" x="362" y="-99.8" font-family="Times,serif" font-size="14.00">UDeleteComponent</text>
</g>
<!-- UDeleteComponent&#45;&gt;UserModule -->
<g id="edge2" class="edge">
<title>UDeleteComponent&#45;&gt;UserModule</title>
<path fill="none" stroke="black" d="M362,-122.11C362,-122.11 362,-140.99 362,-140.99"/>
<polygon fill="black" stroke="black" points="358.5,-140.99 362,-150.99 365.5,-140.99 358.5,-140.99"/>
</g>
<!-- UEditComponent -->
<g id="node3" class="node">
<title>UEditComponent</title>
<polygon fill="#ffffb3" stroke="black" points="280.27,-122 165.73,-122 165.73,-86 280.27,-86 280.27,-122"/>
<text text-anchor="middle" x="223" y="-99.8" font-family="Times,serif" font-size="14.00">UEditComponent</text>
</g>
<!-- UEditComponent&#45;&gt;UserModule -->
<g id="edge3" class="edge">
<title>UEditComponent&#45;&gt;UserModule</title>
<path fill="none" stroke="black" d="M223,-122.02C223,-139.37 223,-163 223,-163 223,-163 308.78,-163 308.78,-163"/>
<polygon fill="black" stroke="black" points="308.78,-166.5 318.78,-163 308.78,-159.5 308.78,-166.5"/>
</g>
<!-- UIndexComponent -->
<g id="node4" class="node">
<title>UIndexComponent</title>
<polygon fill="#ffffb3" stroke="black" points="147.81,-122 24.19,-122 24.19,-86 147.81,-86 147.81,-122"/>
<text text-anchor="middle" x="86" y="-99.8" font-family="Times,serif" font-size="14.00">UIndexComponent</text>
</g>
<!-- UIndexComponent&#45;&gt;UserModule -->
<g id="edge4" class="edge">
<title>UIndexComponent&#45;&gt;UserModule</title>
<path fill="none" stroke="black" d="M86,-122.28C86,-143.32 86,-175 86,-175 86,-175 308.88,-175 308.88,-175"/>
<polygon fill="black" stroke="black" points="308.88,-178.5 318.88,-175 308.87,-171.5 308.88,-178.5"/>
</g>
<!-- UserRoutingModule -->
<g id="node6" class="node">
<title>UserRoutingModule</title>
<polygon fill="#8dd3c7" stroke="black" points="715.59,-122 712.59,-126 691.59,-126 688.59,-122 584.41,-122 584.41,-86 715.59,-86 715.59,-122"/>
<text text-anchor="middle" x="650" y="-99.8" font-family="Times,serif" font-size="14.00">UserRoutingModule</text>
</g>
<!-- UserRoutingModule&#45;&gt;UserModule -->
<g id="edge5" class="edge">
<title>UserRoutingModule&#45;&gt;UserModule</title>
<path fill="none" stroke="black" d="M650,-122.28C650,-143.32 650,-175 650,-175 650,-175 415.12,-175 415.12,-175"/>
<polygon fill="black" stroke="black" points="415.12,-171.5 405.12,-175 415.12,-178.5 415.12,-171.5"/>
</g>
</g>
</svg>
