<?xml version="1.0" encoding="UTF-8" standalone="no"?>
<!DOCTYPE svg PUBLIC "-//W3C//DTD SVG 1.1//EN"
 "http://www.w3.org/Graphics/SVG/1.1/DTD/svg11.dtd">
<!-- Generated by graphviz version 2.47.0 (20210316.0004)
 -->
<!-- Title: dependencies Pages: 1 -->
<svg width="764pt" height="211pt"
 viewBox="0.00 0.00 764.00 211.00" xmlns="http://www.w3.org/2000/svg" xmlns:xlink="http://www.w3.org/1999/xlink">
<g id="graph0" class="graph" transform="scale(1 1) rotate(0) translate(4 207)">
<title>dependencies</title>
<polygon fill="white" stroke="transparent" points="-4,4 -4,-207 760,-207 760,4 -4,4"/>
<text text-anchor="start" x="357.01" y="-42.4" font-family="Times-12" font-weight="bold" font-size="14.00">Legend</text>
<polygon fill="#ffffb3" stroke="transparent" points="144,-10 144,-30 164,-30 164,-10 144,-10"/>
<text text-anchor="start" x="167.63" y="-15.4" font-family="Times-12" font-size="14.00"> &#160;Declarations</text>
<polygon fill="#8dd3c7" stroke="transparent" points="257,-10 257,-30 277,-30 277,-10 257,-10"/>
<text text-anchor="start" x="280.73" y="-15.4" font-family="Times-12" font-size="14.00"> &#160;Module</text>
<polygon fill="#80b1d3" stroke="transparent" points="343,-10 343,-30 363,-30 363,-10 343,-10"/>
<text text-anchor="start" x="366.78" y="-15.4" font-family="Times-12" font-size="14.00"> &#160;Bootstrap</text>
<polygon fill="#fdb462" stroke="transparent" points="440,-10 440,-30 460,-30 460,-10 440,-10"/>
<text text-anchor="start" x="463.67" y="-15.4" font-family="Times-12" font-size="14.00"> &#160;Providers</text>
<polygon fill="#fb8072" stroke="transparent" points="536,-10 536,-30 556,-30 556,-10 536,-10"/>
<text text-anchor="start" x="559.73" y="-15.4" font-family="Times-12" font-size="14.00"> &#160;Exports</text>
<g id="clust1" class="cluster">
<title>cluster_CocktailModule</title>
<polygon fill="none" stroke="black" stroke-dasharray="1,5" points="8,-70 8,-195 748,-195 748,-70 8,-70"/>
</g>
<g id="clust2" class="cluster">
<title>cluster_CocktailModule_declarations</title>
<polygon fill="none" stroke="black" points="192,-78 192,-130 740,-130 740,-78 192,-78"/>
</g>
<g id="clust7" class="cluster">
<title>cluster_CocktailModule_imports</title>
<polygon fill="none" stroke="black" points="16,-78 16,-130 184,-130 184,-78 16,-78"/>
</g>
<!-- CAddComponent -->
<g id="node1" class="node">
<title>CAddComponent</title>
<polygon fill="#ffffb3" stroke="black" points="732.28,-122 617.72,-122 617.72,-86 732.28,-86 732.28,-122"/>
<text text-anchor="middle" x="675" y="-99.8" font-family="Times,serif" font-size="14.00">CAddComponent</text>
</g>
<!-- CocktailModule -->
<g id="node5" class="node">
<title>CocktailModule</title>
<polygon fill="#8dd3c7" stroke="black" points="450.49,-187 447.49,-191 426.49,-191 423.49,-187 343.51,-187 343.51,-151 450.49,-151 450.49,-187"/>
<text text-anchor="middle" x="397" y="-164.8" font-family="Times,serif" font-size="14.00">CocktailModule</text>
</g>
<!-- CAddComponent&#45;&gt;CocktailModule -->
<g id="edge1" class="edge">
<title>CAddComponent&#45;&gt;CocktailModule</title>
<path fill="none" stroke="black" d="M675,-122.28C675,-143.32 675,-175 675,-175 675,-175 460.6,-175 460.6,-175"/>
<polygon fill="black" stroke="black" points="460.6,-171.5 450.6,-175 460.6,-178.5 460.6,-171.5"/>
</g>
<!-- CDeleteComponent -->
<g id="node2" class="node">
<title>CDeleteComponent</title>
<polygon fill="#ffffb3" stroke="black" points="599.7,-122 472.3,-122 472.3,-86 599.7,-86 599.7,-122"/>
<text text-anchor="middle" x="536" y="-99.8" font-family="Times,serif" font-size="14.00">CDeleteComponent</text>
</g>
<!-- CDeleteComponent&#45;&gt;CocktailModule -->
<g id="edge2" class="edge">
<title>CDeleteComponent&#45;&gt;CocktailModule</title>
<path fill="none" stroke="black" d="M536,-122.02C536,-139.37 536,-163 536,-163 536,-163 460.74,-163 460.74,-163"/>
<polygon fill="black" stroke="black" points="460.74,-159.5 450.74,-163 460.74,-166.5 460.74,-159.5"/>
</g>
<!-- CEditComponent -->
<g id="node3" class="node">
<title>CEditComponent</title>
<polygon fill="#ffffb3" stroke="black" points="454,-122 340,-122 340,-86 454,-86 454,-122"/>
<text text-anchor="middle" x="397" y="-99.8" font-family="Times,serif" font-size="14.00">CEditComponent</text>
</g>
<!-- CEditComponent&#45;&gt;CocktailModule -->
<g id="edge3" class="edge">
<title>CEditComponent&#45;&gt;CocktailModule</title>
<path fill="none" stroke="black" d="M397,-122.11C397,-122.11 397,-140.99 397,-140.99"/>
<polygon fill="black" stroke="black" points="393.5,-140.99 397,-150.99 400.5,-140.99 393.5,-140.99"/>
</g>
<!-- CIndexComponent -->
<g id="node4" class="node">
<title>CIndexComponent</title>
<polygon fill="#ffffb3" stroke="black" points="322.05,-122 199.95,-122 199.95,-86 322.05,-86 322.05,-122"/>
<text text-anchor="middle" x="261" y="-99.8" font-family="Times,serif" font-size="14.00">CIndexComponent</text>
</g>
<!-- CIndexComponent&#45;&gt;CocktailModule -->
<g id="edge4" class="edge">
<title>CIndexComponent&#45;&gt;CocktailModule</title>
<path fill="none" stroke="black" d="M261,-122.02C261,-139.37 261,-163 261,-163 261,-163 333.25,-163 333.25,-163"/>
<polygon fill="black" stroke="black" points="333.25,-166.5 343.25,-163 333.25,-159.5 333.25,-166.5"/>
</g>
<!-- CocktailRoutingModule -->
<g id="node6" class="node">
<title>CocktailRoutingModule</title>
<polygon fill="#8dd3c7" stroke="black" points="176.11,-122 173.11,-126 152.11,-126 149.11,-122 23.89,-122 23.89,-86 176.11,-86 176.11,-122"/>
<text text-anchor="middle" x="100" y="-99.8" font-family="Times,serif" font-size="14.00">CocktailRoutingModule</text>
</g>
<!-- CocktailRoutingModule&#45;&gt;CocktailModule -->
<g id="edge5" class="edge">
<title>CocktailRoutingModule&#45;&gt;CocktailModule</title>
<path fill="none" stroke="black" d="M100,-122.28C100,-143.32 100,-175 100,-175 100,-175 333.22,-175 333.22,-175"/>
<polygon fill="black" stroke="black" points="333.22,-178.5 343.22,-175 333.22,-171.5 333.22,-178.5"/>
</g>
</g>
</svg>
