<?xml version="1.0" encoding="UTF-8" standalone="no"?>
<!DOCTYPE svg PUBLIC "-//W3C//DTD SVG 1.1//EN"
 "http://www.w3.org/Graphics/SVG/1.1/DTD/svg11.dtd">
<!-- Generated by graphviz version 2.47.0 (20210316.0004)
 -->
<!-- Title: dependencies Pages: 1 -->
<svg width="911pt" height="211pt"
 viewBox="0.00 0.00 911.00 211.00" xmlns="http://www.w3.org/2000/svg" xmlns:xlink="http://www.w3.org/1999/xlink">
<g id="graph0" class="graph" transform="scale(1 1) rotate(0) translate(4 207)">
<title>dependencies</title>
<polygon fill="white" stroke="transparent" points="-4,4 -4,-207 907,-207 907,4 -4,4"/>
<text text-anchor="start" x="430.51" y="-42.4" font-family="Times-12" font-weight="bold" font-size="14.00">Legend</text>
<polygon fill="#ffffb3" stroke="transparent" points="217.5,-10 217.5,-30 237.5,-30 237.5,-10 217.5,-10"/>
<text text-anchor="start" x="241.13" y="-15.4" font-family="Times-12" font-size="14.00"> &#160;Declarations</text>
<polygon fill="#8dd3c7" stroke="transparent" points="330.5,-10 330.5,-30 350.5,-30 350.5,-10 330.5,-10"/>
<text text-anchor="start" x="354.23" y="-15.4" font-family="Times-12" font-size="14.00"> &#160;Module</text>
<polygon fill="#80b1d3" stroke="transparent" points="416.5,-10 416.5,-30 436.5,-30 436.5,-10 416.5,-10"/>
<text text-anchor="start" x="440.28" y="-15.4" font-family="Times-12" font-size="14.00"> &#160;Bootstrap</text>
<polygon fill="#fdb462" stroke="transparent" points="513.5,-10 513.5,-30 533.5,-30 533.5,-10 513.5,-10"/>
<text text-anchor="start" x="537.17" y="-15.4" font-family="Times-12" font-size="14.00"> &#160;Providers</text>
<polygon fill="#fb8072" stroke="transparent" points="609.5,-10 609.5,-30 629.5,-30 629.5,-10 609.5,-10"/>
<text text-anchor="start" x="633.23" y="-15.4" font-family="Times-12" font-size="14.00"> &#160;Exports</text>
<g id="clust1" class="cluster">
<title>cluster_PublicModule</title>
<polygon fill="none" stroke="black" stroke-dasharray="1,5" points="8,-70 8,-195 895,-195 895,-70 8,-70"/>
</g>
<g id="clust8" class="cluster">
<title>cluster_PublicModule_imports</title>
<polygon fill="none" stroke="black" points="731,-78 731,-130 887,-130 887,-78 731,-78"/>
</g>
<g id="clust2" class="cluster">
<title>cluster_PublicModule_declarations</title>
<polygon fill="none" stroke="black" points="16,-78 16,-130 723,-130 723,-78 16,-78"/>
</g>
<!-- CocktailComponent -->
<g id="node1" class="node">
<title>CocktailComponent</title>
<polygon fill="#ffffb3" stroke="black" points="715.27,-122 586.73,-122 586.73,-86 715.27,-86 715.27,-122"/>
<text text-anchor="middle" x="651" y="-99.8" font-family="Times,serif" font-size="14.00">CocktailComponent</text>
</g>
<!-- PublicModule -->
<g id="node6" class="node">
<title>PublicModule</title>
<polygon fill="#8dd3c7" stroke="black" points="484.83,-187 481.83,-191 460.83,-191 457.83,-187 389.17,-187 389.17,-151 484.83,-151 484.83,-187"/>
<text text-anchor="middle" x="437" y="-164.8" font-family="Times,serif" font-size="14.00">PublicModule</text>
</g>
<!-- CocktailComponent&#45;&gt;PublicModule -->
<g id="edge1" class="edge">
<title>CocktailComponent&#45;&gt;PublicModule</title>
<path fill="none" stroke="black" d="M651,-122.02C651,-139.37 651,-163 651,-163 651,-163 494.76,-163 494.76,-163"/>
<polygon fill="black" stroke="black" points="494.76,-159.5 484.76,-163 494.76,-166.5 494.76,-159.5"/>
</g>
<!-- ContactComponent -->
<g id="node2" class="node">
<title>ContactComponent</title>
<polygon fill="#ffffb3" stroke="black" points="568.38,-122 443.62,-122 443.62,-86 568.38,-86 568.38,-122"/>
<text text-anchor="middle" x="506" y="-99.8" font-family="Times,serif" font-size="14.00">ContactComponent</text>
</g>
<!-- ContactComponent&#45;&gt;PublicModule -->
<g id="edge2" class="edge">
<title>ContactComponent&#45;&gt;PublicModule</title>
<path fill="none" stroke="black" d="M464.11,-122.11C464.11,-122.11 464.11,-140.99 464.11,-140.99"/>
<polygon fill="black" stroke="black" points="460.61,-140.99 464.11,-150.99 467.61,-140.99 460.61,-140.99"/>
</g>
<!-- HomeComponent -->
<g id="node3" class="node">
<title>HomeComponent</title>
<polygon fill="#ffffb3" stroke="black" points="425.55,-122 310.45,-122 310.45,-86 425.55,-86 425.55,-122"/>
<text text-anchor="middle" x="368" y="-99.8" font-family="Times,serif" font-size="14.00">HomeComponent</text>
</g>
<!-- HomeComponent&#45;&gt;PublicModule -->
<g id="edge3" class="edge">
<title>HomeComponent&#45;&gt;PublicModule</title>
<path fill="none" stroke="black" d="M407.55,-122.11C407.55,-122.11 407.55,-140.99 407.55,-140.99"/>
<polygon fill="black" stroke="black" points="404.05,-140.99 407.55,-150.99 411.05,-140.99 404.05,-140.99"/>
</g>
<!-- PheaderComponent -->
<g id="node4" class="node">
<title>PheaderComponent</title>
<polygon fill="#ffffb3" stroke="black" points="292.42,-122 165.58,-122 165.58,-86 292.42,-86 292.42,-122"/>
<text text-anchor="middle" x="229" y="-99.8" font-family="Times,serif" font-size="14.00">PheaderComponent</text>
</g>
<!-- PheaderComponent&#45;&gt;PublicModule -->
<g id="edge4" class="edge">
<title>PheaderComponent&#45;&gt;PublicModule</title>
<path fill="none" stroke="black" d="M229,-122.02C229,-139.37 229,-163 229,-163 229,-163 379.28,-163 379.28,-163"/>
<polygon fill="black" stroke="black" points="379.28,-166.5 389.28,-163 379.28,-159.5 379.28,-166.5"/>
</g>
<!-- PlayoutComponent -->
<g id="node5" class="node">
<title>PlayoutComponent</title>
<polygon fill="#ffffb3" stroke="black" points="148.11,-122 23.89,-122 23.89,-86 148.11,-86 148.11,-122"/>
<text text-anchor="middle" x="86" y="-99.8" font-family="Times,serif" font-size="14.00">PlayoutComponent</text>
</g>
<!-- PlayoutComponent&#45;&gt;PublicModule -->
<g id="edge5" class="edge">
<title>PlayoutComponent&#45;&gt;PublicModule</title>
<path fill="none" stroke="black" d="M86,-122.28C86,-143.32 86,-175 86,-175 86,-175 379.3,-175 379.3,-175"/>
<polygon fill="black" stroke="black" points="379.3,-178.5 389.3,-175 379.3,-171.5 379.3,-178.5"/>
</g>
<!-- PublicRoutingModule -->
<g id="node7" class="node">
<title>PublicRoutingModule</title>
<polygon fill="#8dd3c7" stroke="black" points="879.45,-122 876.45,-126 855.45,-126 852.45,-122 738.55,-122 738.55,-86 879.45,-86 879.45,-122"/>
<text text-anchor="middle" x="809" y="-99.8" font-family="Times,serif" font-size="14.00">PublicRoutingModule</text>
</g>
<!-- PublicRoutingModule&#45;&gt;PublicModule -->
<g id="edge6" class="edge">
<title>PublicRoutingModule&#45;&gt;PublicModule</title>
<path fill="none" stroke="black" d="M809,-122.28C809,-143.32 809,-175 809,-175 809,-175 494.87,-175 494.87,-175"/>
<polygon fill="black" stroke="black" points="494.87,-171.5 484.87,-175 494.87,-178.5 494.87,-171.5"/>
</g>
</g>
</svg>
